# High-Fidelity Mesopotamian Ziggurat Citadel
mtllib SM_Citadel.mtl
o SM_Citadel
v -1800.00 -1800.00 0.00
v 1800.00 -1800.00 0.00
v 1800.00 1800.00 0.00
v -1800.00 1800.00 0.00
v -1800.00 -1800.00 450.00
v 1800.00 -1800.00 450.00
v 1800.00 1800.00 450.00
v -1800.00 1800.00 450.00
v -1400.00 -1400.00 450.00
v 1400.00 -1400.00 450.00
v 1400.00 1400.00 450.00
v -1400.00 1400.00 450.00
v -1400.00 -1400.00 850.00
v 1400.00 -1400.00 850.00
v 1400.00 1400.00 850.00
v -1400.00 1400.00 850.00
v -1000.00 -1000.00 850.00
v 1000.00 -1000.00 850.00
v 1000.00 1000.00 850.00
v -1000.00 1000.00 850.00
v -1000.00 -1000.00 1200.00
v 1000.00 -1000.00 1200.00
v 1000.00 1000.00 1200.00
v -1000.00 1000.00 1200.00
v -600.00 -600.00 1200.00
v 600.00 -600.00 1200.00
v 600.00 600.00 1200.00
v -600.00 600.00 1200.00
v -600.00 -600.00 1600.00
v 600.00 -600.00 1600.00
v 600.00 600.00 1600.00
v -600.00 600.00 1600.00
v -650.00 -650.00 1600.00
v 650.00 -650.00 1600.00
v 650.00 650.00 1600.00
v -650.00 650.00 1600.00
v -650.00 -650.00 1780.00
v 650.00 -650.00 1780.00
v 650.00 650.00 1780.00
v -650.00 650.00 1780.00
v -450.00 -580.00 1780.00
v 450.00 -580.00 1780.00
v 450.00 580.00 1780.00
v -450.00 580.00 1780.00
v -450.00 -580.00 1920.00
v 450.00 -580.00 1920.00
v 450.00 580.00 1920.00
v -450.00 580.00 1920.00
v -220.00 -2600.00 0.00
v 220.00 -2600.00 0.00
v 220.00 -2433.33 0.00
v -220.00 -2433.33 0.00
v -220.00 -2600.00 100.00
v 220.00 -2600.00 100.00
v 220.00 -2433.33 100.00
v -220.00 -2433.33 100.00
v -220.00 -2433.33 0.00
v 220.00 -2433.33 0.00
v 220.00 -2266.67 0.00
v -220.00 -2266.67 0.00
v -220.00 -2433.33 200.00
v 220.00 -2433.33 200.00
v 220.00 -2266.67 200.00
v -220.00 -2266.67 200.00
v -220.00 -2266.67 0.00
v 220.00 -2266.67 0.00
v 220.00 -2100.00 0.00
v -220.00 -2100.00 0.00
v -220.00 -2266.67 300.00
v 220.00 -2266.67 300.00
v 220.00 -2100.00 300.00
v -220.00 -2100.00 300.00
v -220.00 -2100.00 0.00
v 220.00 -2100.00 0.00
v 220.00 -1933.33 0.00
v -220.00 -1933.33 0.00
v -220.00 -2100.00 400.00
v 220.00 -2100.00 400.00
v 220.00 -1933.33 400.00
v -220.00 -1933.33 400.00
v -220.00 -1933.33 0.00
v 220.00 -1933.33 0.00
v 220.00 -1766.67 0.00
v -220.00 -1766.67 0.00
v -220.00 -1933.33 500.00
v 220.00 -1933.33 500.00
v 220.00 -1766.67 500.00
v -220.00 -1766.67 500.00
v -220.00 -1766.67 0.00
v 220.00 -1766.67 0.00
v 220.00 -1600.00 0.00
v -220.00 -1600.00 0.00
v -220.00 -1766.67 600.00
v 220.00 -1766.67 600.00
v 220.00 -1600.00 600.00
v -220.00 -1600.00 600.00
v -220.00 -1600.00 0.00
v 220.00 -1600.00 0.00
v 220.00 -1433.33 0.00
v -220.00 -1433.33 0.00
v -220.00 -1600.00 700.00
v 220.00 -1600.00 700.00
v 220.00 -1433.33 700.00
v -220.00 -1433.33 700.00
v -220.00 -1433.33 0.00
v 220.00 -1433.33 0.00
v 220.00 -1266.67 0.00
v -220.00 -1266.67 0.00
v -220.00 -1433.33 800.00
v 220.00 -1433.33 800.00
v 220.00 -1266.67 800.00
v -220.00 -1266.67 800.00
v -220.00 -1266.67 0.00
v 220.00 -1266.67 0.00
v 220.00 -1100.00 0.00
v -220.00 -1100.00 0.00
v -220.00 -1266.67 900.00
v 220.00 -1266.67 900.00
v 220.00 -1100.00 900.00
v -220.00 -1100.00 900.00
v -220.00 -1100.00 0.00
v 220.00 -1100.00 0.00
v 220.00 -933.33 0.00
v -220.00 -933.33 0.00
v -220.00 -1100.00 1000.00
v 220.00 -1100.00 1000.00
v 220.00 -933.33 1000.00
v -220.00 -933.33 1000.00
v -220.00 -933.33 0.00
v 220.00 -933.33 0.00
v 220.00 -766.67 0.00
v -220.00 -766.67 0.00
v -220.00 -933.33 1100.00
v 220.00 -933.33 1100.00
v 220.00 -766.67 1100.00
v -220.00 -766.67 1100.00
v -220.00 -766.67 0.00
v 220.00 -766.67 0.00
v 220.00 -600.00 0.00
v -220.00 -600.00 0.00
v -220.00 -766.67 1200.00
v 220.00 -766.67 1200.00
v 220.00 -600.00 1200.00
v -220.00 -600.00 1200.00
v -1040.00 -1800.00 0.00
v -760.00 -1800.00 0.00
v -760.00 -1750.00 0.00
v -1040.00 -1750.00 0.00
v -1040.00 -1800.00 37.50
v -760.00 -1800.00 37.50
v -760.00 -1750.00 37.50
v -1040.00 -1750.00 37.50
v -1040.00 -1750.00 0.00
v -760.00 -1750.00 0.00
v -760.00 -1700.00 0.00
v -1040.00 -1700.00 0.00
v -1040.00 -1750.00 75.00
v -760.00 -1750.00 75.00
v -760.00 -1700.00 75.00
v -1040.00 -1700.00 75.00
v -1040.00 -1700.00 0.00
v -760.00 -1700.00 0.00
v -760.00 -1650.00 0.00
v -1040.00 -1650.00 0.00
v -1040.00 -1700.00 112.50
v -760.00 -1700.00 112.50
v -760.00 -1650.00 112.50
v -1040.00 -1650.00 112.50
v -1040.00 -1650.00 0.00
v -760.00 -1650.00 0.00
v -760.00 -1600.00 0.00
v -1040.00 -1600.00 0.00
v -1040.00 -1650.00 150.00
v -760.00 -1650.00 150.00
v -760.00 -1600.00 150.00
v -1040.00 -1600.00 150.00
v -1040.00 -1600.00 0.00
v -760.00 -1600.00 0.00
v -760.00 -1550.00 0.00
v -1040.00 -1550.00 0.00
v -1040.00 -1600.00 187.50
v -760.00 -1600.00 187.50
v -760.00 -1550.00 187.50
v -1040.00 -1550.00 187.50
v -1040.00 -1550.00 0.00
v -760.00 -1550.00 0.00
v -760.00 -1500.00 0.00
v -1040.00 -1500.00 0.00
v -1040.00 -1550.00 225.00
v -760.00 -1550.00 225.00
v -760.00 -1500.00 225.00
v -1040.00 -1500.00 225.00
v -1040.00 -1500.00 0.00
v -760.00 -1500.00 0.00
v -760.00 -1450.00 0.00
v -1040.00 -1450.00 0.00
v -1040.00 -1500.00 262.50
v -760.00 -1500.00 262.50
v -760.00 -1450.00 262.50
v -1040.00 -1450.00 262.50
v -1040.00 -1450.00 0.00
v -760.00 -1450.00 0.00
v -760.00 -1400.00 0.00
v -1040.00 -1400.00 0.00
v -1040.00 -1450.00 300.00
v -760.00 -1450.00 300.00
v -760.00 -1400.00 300.00
v -1040.00 -1400.00 300.00
v -1040.00 -1400.00 0.00
v -760.00 -1400.00 0.00
v -760.00 -1350.00 0.00
v -1040.00 -1350.00 0.00
v -1040.00 -1400.00 337.50
v -760.00 -1400.00 337.50
v -760.00 -1350.00 337.50
v -1040.00 -1350.00 337.50
v -1040.00 -1350.00 0.00
v -760.00 -1350.00 0.00
v -760.00 -1300.00 0.00
v -1040.00 -1300.00 0.00
v -1040.00 -1350.00 375.00
v -760.00 -1350.00 375.00
v -760.00 -1300.00 375.00
v -1040.00 -1300.00 375.00
v -1040.00 -1300.00 0.00
v -760.00 -1300.00 0.00
v -760.00 -1250.00 0.00
v -1040.00 -1250.00 0.00
v -1040.00 -1300.00 412.50
v -760.00 -1300.00 412.50
v -760.00 -1250.00 412.50
v -1040.00 -1250.00 412.50
v -1040.00 -1250.00 0.00
v -760.00 -1250.00 0.00
v -760.00 -1200.00 0.00
v -1040.00 -1200.00 0.00
v -1040.00 -1250.00 450.00
v -760.00 -1250.00 450.00
v -760.00 -1200.00 450.00
v -1040.00 -1200.00 450.00
v 760.00 -1800.00 0.00
v 1040.00 -1800.00 0.00
v 1040.00 -1750.00 0.00
v 760.00 -1750.00 0.00
v 760.00 -1800.00 37.50
v 1040.00 -1800.00 37.50
v 1040.00 -1750.00 37.50
v 760.00 -1750.00 37.50
v 760.00 -1750.00 0.00
v 1040.00 -1750.00 0.00
v 1040.00 -1700.00 0.00
v 760.00 -1700.00 0.00
v 760.00 -1750.00 75.00
v 1040.00 -1750.00 75.00
v 1040.00 -1700.00 75.00
v 760.00 -1700.00 75.00
v 760.00 -1700.00 0.00
v 1040.00 -1700.00 0.00
v 1040.00 -1650.00 0.00
v 760.00 -1650.00 0.00
v 760.00 -1700.00 112.50
v 1040.00 -1700.00 112.50
v 1040.00 -1650.00 112.50
v 760.00 -1650.00 112.50
v 760.00 -1650.00 0.00
v 1040.00 -1650.00 0.00
v 1040.00 -1600.00 0.00
v 760.00 -1600.00 0.00
v 760.00 -1650.00 150.00
v 1040.00 -1650.00 150.00
v 1040.00 -1600.00 150.00
v 760.00 -1600.00 150.00
v 760.00 -1600.00 0.00
v 1040.00 -1600.00 0.00
v 1040.00 -1550.00 0.00
v 760.00 -1550.00 0.00
v 760.00 -1600.00 187.50
v 1040.00 -1600.00 187.50
v 1040.00 -1550.00 187.50
v 760.00 -1550.00 187.50
v 760.00 -1550.00 0.00
v 1040.00 -1550.00 0.00
v 1040.00 -1500.00 0.00
v 760.00 -1500.00 0.00
v 760.00 -1550.00 225.00
v 1040.00 -1550.00 225.00
v 1040.00 -1500.00 225.00
v 760.00 -1500.00 225.00
v 760.00 -1500.00 0.00
v 1040.00 -1500.00 0.00
v 1040.00 -1450.00 0.00
v 760.00 -1450.00 0.00
v 760.00 -1500.00 262.50
v 1040.00 -1500.00 262.50
v 1040.00 -1450.00 262.50
v 760.00 -1450.00 262.50
v 760.00 -1450.00 0.00
v 1040.00 -1450.00 0.00
v 1040.00 -1400.00 0.00
v 760.00 -1400.00 0.00
v 760.00 -1450.00 300.00
v 1040.00 -1450.00 300.00
v 1040.00 -1400.00 300.00
v 760.00 -1400.00 300.00
v 760.00 -1400.00 0.00
v 1040.00 -1400.00 0.00
v 1040.00 -1350.00 0.00
v 760.00 -1350.00 0.00
v 760.00 -1400.00 337.50
v 1040.00 -1400.00 337.50
v 1040.00 -1350.00 337.50
v 760.00 -1350.00 337.50
v 760.00 -1350.00 0.00
v 1040.00 -1350.00 0.00
v 1040.00 -1300.00 0.00
v 760.00 -1300.00 0.00
v 760.00 -1350.00 375.00
v 1040.00 -1350.00 375.00
v 1040.00 -1300.00 375.00
v 760.00 -1300.00 375.00
v 760.00 -1300.00 0.00
v 1040.00 -1300.00 0.00
v 1040.00 -1250.00 0.00
v 760.00 -1250.00 0.00
v 760.00 -1300.00 412.50
v 1040.00 -1300.00 412.50
v 1040.00 -1250.00 412.50
v 760.00 -1250.00 412.50
v 760.00 -1250.00 0.00
v 1040.00 -1250.00 0.00
v 1040.00 -1200.00 0.00
v 760.00 -1200.00 0.00
v 760.00 -1250.00 450.00
v 1040.00 -1250.00 450.00
v 1040.00 -1200.00 450.00
v 760.00 -1200.00 450.00
v -1420.00 -1420.00 450.00
v -1180.00 -1420.00 450.00
v -1180.00 -1180.00 450.00
v -1420.00 -1180.00 450.00
v -1420.00 -1420.00 620.00
v -1180.00 -1420.00 620.00
v -1180.00 -1180.00 620.00
v -1420.00 -1180.00 620.00
v -1440.00 -1440.00 620.00
v -1160.00 -1440.00 620.00
v -1160.00 -1160.00 620.00
v -1440.00 -1160.00 620.00
v -1440.00 -1440.00 670.00
v -1160.00 -1440.00 670.00
v -1160.00 -1160.00 670.00
v -1440.00 -1160.00 670.00
v 1180.00 -1420.00 450.00
v 1420.00 -1420.00 450.00
v 1420.00 -1180.00 450.00
v 1180.00 -1180.00 450.00
v 1180.00 -1420.00 620.00
v 1420.00 -1420.00 620.00
v 1420.00 -1180.00 620.00
v 1180.00 -1180.00 620.00
v 1160.00 -1440.00 620.00
v 1440.00 -1440.00 620.00
v 1440.00 -1160.00 620.00
v 1160.00 -1160.00 620.00
v 1160.00 -1440.00 670.00
v 1440.00 -1440.00 670.00
v 1440.00 -1160.00 670.00
v 1160.00 -1160.00 670.00
v -1420.00 1180.00 450.00
v -1180.00 1180.00 450.00
v -1180.00 1420.00 450.00
v -1420.00 1420.00 450.00
v -1420.00 1180.00 620.00
v -1180.00 1180.00 620.00
v -1180.00 1420.00 620.00
v -1420.00 1420.00 620.00
v -1440.00 1160.00 620.00
v -1160.00 1160.00 620.00
v -1160.00 1440.00 620.00
v -1440.00 1440.00 620.00
v -1440.00 1160.00 670.00
v -1160.00 1160.00 670.00
v -1160.00 1440.00 670.00
v -1440.00 1440.00 670.00
v 1180.00 1180.00 450.00
v 1420.00 1180.00 450.00
v 1420.00 1420.00 450.00
v 1180.00 1420.00 450.00
v 1180.00 1180.00 620.00
v 1420.00 1180.00 620.00
v 1420.00 1420.00 620.00
v 1180.00 1420.00 620.00
v 1160.00 1160.00 620.00
v 1440.00 1160.00 620.00
v 1440.00 1440.00 620.00
v 1160.00 1440.00 620.00
v 1160.00 1160.00 670.00
v 1440.00 1160.00 670.00
v 1440.00 1440.00 670.00
v 1160.00 1440.00 670.00
v -590.00 -740.00 1200.00
v -410.00 -740.00 1200.00
v -410.00 -560.00 1200.00
v -590.00 -560.00 1200.00
v -590.00 -740.00 1350.00
v -410.00 -740.00 1350.00
v -410.00 -560.00 1350.00
v -590.00 -560.00 1350.00
v -610.00 -760.00 1350.00
v -390.00 -760.00 1350.00
v -390.00 -540.00 1350.00
v -610.00 -540.00 1350.00
v -610.00 -760.00 1400.00
v -390.00 -760.00 1400.00
v -390.00 -540.00 1400.00
v -610.00 -540.00 1400.00
v 410.00 -740.00 1200.00
v 590.00 -740.00 1200.00
v 590.00 -560.00 1200.00
v 410.00 -560.00 1200.00
v 410.00 -740.00 1350.00
v 590.00 -740.00 1350.00
v 590.00 -560.00 1350.00
v 410.00 -560.00 1350.00
v 390.00 -760.00 1350.00
v 610.00 -760.00 1350.00
v 610.00 -540.00 1350.00
v 390.00 -540.00 1350.00
v 390.00 -760.00 1400.00
v 610.00 -760.00 1400.00
v 610.00 -540.00 1400.00
v 390.00 -540.00 1400.00
vt 0.00 0.00
vt 1.00 0.00
vt 1.00 1.00
vt 0.00 1.00
vn 0.00 0.00 -1.00
vn 0.00 0.00 1.00
vn 0.00 -1.00 0.00
vn 1.00 0.00 0.00
vn 0.00 1.00 0.00
vn -1.00 0.00 0.00
usemtl MI_Mesopotamian_Mudbrick
f 1/1/1 4/2/1 3/3/1 2/4/1
f 5/1/2 6/2/2 7/3/2 8/4/2
f 1/1/3 2/2/3 6/3/3 5/4/3
f 2/1/4 3/2/4 7/3/4 6/4/4
f 3/1/5 4/2/5 8/3/5 7/4/5
f 4/1/6 1/2/6 5/3/6 8/4/6
f 9/1/1 12/2/1 11/3/1 10/4/1
f 13/1/2 14/2/2 15/3/2 16/4/2
f 9/1/3 10/2/3 14/3/3 13/4/3
f 10/1/4 11/2/4 15/3/4 14/4/4
f 11/1/5 12/2/5 16/3/5 15/4/5
f 12/1/6 9/2/6 13/3/6 16/4/6
f 17/1/1 20/2/1 19/3/1 18/4/1
f 21/1/2 22/2/2 23/3/2 24/4/2
f 17/1/3 18/2/3 22/3/3 21/4/3
f 18/1/4 19/2/4 23/3/4 22/4/4
f 19/1/5 20/2/5 24/3/5 23/4/5
f 20/1/6 17/2/6 21/3/6 24/4/6
f 25/1/1 28/2/1 27/3/1 26/4/1
f 29/1/2 30/2/2 31/3/2 32/4/2
f 25/1/3 26/2/3 30/3/3 29/4/3
f 26/1/4 27/2/4 31/3/4 30/4/4
f 27/1/5 28/2/5 32/3/5 31/4/5
f 28/1/6 25/2/6 29/3/6 32/4/6
f 49/1/1 52/2/1 51/3/1 50/4/1
f 53/1/2 54/2/2 55/3/2 56/4/2
f 49/1/3 50/2/3 54/3/3 53/4/3
f 50/1/4 51/2/4 55/3/4 54/4/4
f 51/1/5 52/2/5 56/3/5 55/4/5
f 52/1/6 49/2/6 53/3/6 56/4/6
f 57/1/1 60/2/1 59/3/1 58/4/1
f 61/1/2 62/2/2 63/3/2 64/4/2
f 57/1/3 58/2/3 62/3/3 61/4/3
f 58/1/4 59/2/4 63/3/4 62/4/4
f 59/1/5 60/2/5 64/3/5 63/4/5
f 60/1/6 57/2/6 61/3/6 64/4/6
f 65/1/1 68/2/1 67/3/1 66/4/1
f 69/1/2 70/2/2 71/3/2 72/4/2
f 65/1/3 66/2/3 70/3/3 69/4/3
f 66/1/4 67/2/4 71/3/4 70/4/4
f 67/1/5 68/2/5 72/3/5 71/4/5
f 68/1/6 65/2/6 69/3/6 72/4/6
f 73/1/1 76/2/1 75/3/1 74/4/1
f 77/1/2 78/2/2 79/3/2 80/4/2
f 73/1/3 74/2/3 78/3/3 77/4/3
f 74/1/4 75/2/4 79/3/4 78/4/4
f 75/1/5 76/2/5 80/3/5 79/4/5
f 76/1/6 73/2/6 77/3/6 80/4/6
f 81/1/1 84/2/1 83/3/1 82/4/1
f 85/1/2 86/2/2 87/3/2 88/4/2
f 81/1/3 82/2/3 86/3/3 85/4/3
f 82/1/4 83/2/4 87/3/4 86/4/4
f 83/1/5 84/2/5 88/3/5 87/4/5
f 84/1/6 81/2/6 85/3/6 88/4/6
f 89/1/1 92/2/1 91/3/1 90/4/1
f 93/1/2 94/2/2 95/3/2 96/4/2
f 89/1/3 90/2/3 94/3/3 93/4/3
f 90/1/4 91/2/4 95/3/4 94/4/4
f 91/1/5 92/2/5 96/3/5 95/4/5
f 92/1/6 89/2/6 93/3/6 96/4/6
f 97/1/1 100/2/1 99/3/1 98/4/1
f 101/1/2 102/2/2 103/3/2 104/4/2
f 97/1/3 98/2/3 102/3/3 101/4/3
f 98/1/4 99/2/4 103/3/4 102/4/4
f 99/1/5 100/2/5 104/3/5 103/4/5
f 100/1/6 97/2/6 101/3/6 104/4/6
f 105/1/1 108/2/1 107/3/1 106/4/1
f 109/1/2 110/2/2 111/3/2 112/4/2
f 105/1/3 106/2/3 110/3/3 109/4/3
f 106/1/4 107/2/4 111/3/4 110/4/4
f 107/1/5 108/2/5 112/3/5 111/4/5
f 108/1/6 105/2/6 109/3/6 112/4/6
f 113/1/1 116/2/1 115/3/1 114/4/1
f 117/1/2 118/2/2 119/3/2 120/4/2
f 113/1/3 114/2/3 118/3/3 117/4/3
f 114/1/4 115/2/4 119/3/4 118/4/4
f 115/1/5 116/2/5 120/3/5 119/4/5
f 116/1/6 113/2/6 117/3/6 120/4/6
f 121/1/1 124/2/1 123/3/1 122/4/1
f 125/1/2 126/2/2 127/3/2 128/4/2
f 121/1/3 122/2/3 126/3/3 125/4/3
f 122/1/4 123/2/4 127/3/4 126/4/4
f 123/1/5 124/2/5 128/3/5 127/4/5
f 124/1/6 121/2/6 125/3/6 128/4/6
f 129/1/1 132/2/1 131/3/1 130/4/1
f 133/1/2 134/2/2 135/3/2 136/4/2
f 129/1/3 130/2/3 134/3/3 133/4/3
f 130/1/4 131/2/4 135/3/4 134/4/4
f 131/1/5 132/2/5 136/3/5 135/4/5
f 132/1/6 129/2/6 133/3/6 136/4/6
f 137/1/1 140/2/1 139/3/1 138/4/1
f 141/1/2 142/2/2 143/3/2 144/4/2
f 137/1/3 138/2/3 142/3/3 141/4/3
f 138/1/4 139/2/4 143/3/4 142/4/4
f 139/1/5 140/2/5 144/3/5 143/4/5
f 140/1/6 137/2/6 141/3/6 144/4/6
f 145/1/1 148/2/1 147/3/1 146/4/1
f 149/1/2 150/2/2 151/3/2 152/4/2
f 145/1/3 146/2/3 150/3/3 149/4/3
f 146/1/4 147/2/4 151/3/4 150/4/4
f 147/1/5 148/2/5 152/3/5 151/4/5
f 148/1/6 145/2/6 149/3/6 152/4/6
f 153/1/1 156/2/1 155/3/1 154/4/1
f 157/1/2 158/2/2 159/3/2 160/4/2
f 153/1/3 154/2/3 158/3/3 157/4/3
f 154/1/4 155/2/4 159/3/4 158/4/4
f 155/1/5 156/2/5 160/3/5 159/4/5
f 156/1/6 153/2/6 157/3/6 160/4/6
f 161/1/1 164/2/1 163/3/1 162/4/1
f 165/1/2 166/2/2 167/3/2 168/4/2
f 161/1/3 162/2/3 166/3/3 165/4/3
f 162/1/4 163/2/4 167/3/4 166/4/4
f 163/1/5 164/2/5 168/3/5 167/4/5
f 164/1/6 161/2/6 165/3/6 168/4/6
f 169/1/1 172/2/1 171/3/1 170/4/1
f 173/1/2 174/2/2 175/3/2 176/4/2
f 169/1/3 170/2/3 174/3/3 173/4/3
f 170/1/4 171/2/4 175/3/4 174/4/4
f 171/1/5 172/2/5 176/3/5 175/4/5
f 172/1/6 169/2/6 173/3/6 176/4/6
f 177/1/1 180/2/1 179/3/1 178/4/1
f 181/1/2 182/2/2 183/3/2 184/4/2
f 177/1/3 178/2/3 182/3/3 181/4/3
f 178/1/4 179/2/4 183/3/4 182/4/4
f 179/1/5 180/2/5 184/3/5 183/4/5
f 180/1/6 177/2/6 181/3/6 184/4/6
f 185/1/1 188/2/1 187/3/1 186/4/1
f 189/1/2 190/2/2 191/3/2 192/4/2
f 185/1/3 186/2/3 190/3/3 189/4/3
f 186/1/4 187/2/4 191/3/4 190/4/4
f 187/1/5 188/2/5 192/3/5 191/4/5
f 188/1/6 185/2/6 189/3/6 192/4/6
f 193/1/1 196/2/1 195/3/1 194/4/1
f 197/1/2 198/2/2 199/3/2 200/4/2
f 193/1/3 194/2/3 198/3/3 197/4/3
f 194/1/4 195/2/4 199/3/4 198/4/4
f 195/1/5 196/2/5 200/3/5 199/4/5
f 196/1/6 193/2/6 197/3/6 200/4/6
f 201/1/1 204/2/1 203/3/1 202/4/1
f 205/1/2 206/2/2 207/3/2 208/4/2
f 201/1/3 202/2/3 206/3/3 205/4/3
f 202/1/4 203/2/4 207/3/4 206/4/4
f 203/1/5 204/2/5 208/3/5 207/4/5
f 204/1/6 201/2/6 205/3/6 208/4/6
f 209/1/1 212/2/1 211/3/1 210/4/1
f 213/1/2 214/2/2 215/3/2 216/4/2
f 209/1/3 210/2/3 214/3/3 213/4/3
f 210/1/4 211/2/4 215/3/4 214/4/4
f 211/1/5 212/2/5 216/3/5 215/4/5
f 212/1/6 209/2/6 213/3/6 216/4/6
f 217/1/1 220/2/1 219/3/1 218/4/1
f 221/1/2 222/2/2 223/3/2 224/4/2
f 217/1/3 218/2/3 222/3/3 221/4/3
f 218/1/4 219/2/4 223/3/4 222/4/4
f 219/1/5 220/2/5 224/3/5 223/4/5
f 220/1/6 217/2/6 221/3/6 224/4/6
f 225/1/1 228/2/1 227/3/1 226/4/1
f 229/1/2 230/2/2 231/3/2 232/4/2
f 225/1/3 226/2/3 230/3/3 229/4/3
f 226/1/4 227/2/4 231/3/4 230/4/4
f 227/1/5 228/2/5 232/3/5 231/4/5
f 228/1/6 225/2/6 229/3/6 232/4/6
f 233/1/1 236/2/1 235/3/1 234/4/1
f 237/1/2 238/2/2 239/3/2 240/4/2
f 233/1/3 234/2/3 238/3/3 237/4/3
f 234/1/4 235/2/4 239/3/4 238/4/4
f 235/1/5 236/2/5 240/3/5 239/4/5
f 236/1/6 233/2/6 237/3/6 240/4/6
f 241/1/1 244/2/1 243/3/1 242/4/1
f 245/1/2 246/2/2 247/3/2 248/4/2
f 241/1/3 242/2/3 246/3/3 245/4/3
f 242/1/4 243/2/4 247/3/4 246/4/4
f 243/1/5 244/2/5 248/3/5 247/4/5
f 244/1/6 241/2/6 245/3/6 248/4/6
f 249/1/1 252/2/1 251/3/1 250/4/1
f 253/1/2 254/2/2 255/3/2 256/4/2
f 249/1/3 250/2/3 254/3/3 253/4/3
f 250/1/4 251/2/4 255/3/4 254/4/4
f 251/1/5 252/2/5 256/3/5 255/4/5
f 252/1/6 249/2/6 253/3/6 256/4/6
f 257/1/1 260/2/1 259/3/1 258/4/1
f 261/1/2 262/2/2 263/3/2 264/4/2
f 257/1/3 258/2/3 262/3/3 261/4/3
f 258/1/4 259/2/4 263/3/4 262/4/4
f 259/1/5 260/2/5 264/3/5 263/4/5
f 260/1/6 257/2/6 261/3/6 264/4/6
f 265/1/1 268/2/1 267/3/1 266/4/1
f 269/1/2 270/2/2 271/3/2 272/4/2
f 265/1/3 266/2/3 270/3/3 269/4/3
f 266/1/4 267/2/4 271/3/4 270/4/4
f 267/1/5 268/2/5 272/3/5 271/4/5
f 268/1/6 265/2/6 269/3/6 272/4/6
f 273/1/1 276/2/1 275/3/1 274/4/1
f 277/1/2 278/2/2 279/3/2 280/4/2
f 273/1/3 274/2/3 278/3/3 277/4/3
f 274/1/4 275/2/4 279/3/4 278/4/4
f 275/1/5 276/2/5 280/3/5 279/4/5
f 276/1/6 273/2/6 277/3/6 280/4/6
f 281/1/1 284/2/1 283/3/1 282/4/1
f 285/1/2 286/2/2 287/3/2 288/4/2
f 281/1/3 282/2/3 286/3/3 285/4/3
f 282/1/4 283/2/4 287/3/4 286/4/4
f 283/1/5 284/2/5 288/3/5 287/4/5
f 284/1/6 281/2/6 285/3/6 288/4/6
f 289/1/1 292/2/1 291/3/1 290/4/1
f 293/1/2 294/2/2 295/3/2 296/4/2
f 289/1/3 290/2/3 294/3/3 293/4/3
f 290/1/4 291/2/4 295/3/4 294/4/4
f 291/1/5 292/2/5 296/3/5 295/4/5
f 292/1/6 289/2/6 293/3/6 296/4/6
f 297/1/1 300/2/1 299/3/1 298/4/1
f 301/1/2 302/2/2 303/3/2 304/4/2
f 297/1/3 298/2/3 302/3/3 301/4/3
f 298/1/4 299/2/4 303/3/4 302/4/4
f 299/1/5 300/2/5 304/3/5 303/4/5
f 300/1/6 297/2/6 301/3/6 304/4/6
f 305/1/1 308/2/1 307/3/1 306/4/1
f 309/1/2 310/2/2 311/3/2 312/4/2
f 305/1/3 306/2/3 310/3/3 309/4/3
f 306/1/4 307/2/4 311/3/4 310/4/4
f 307/1/5 308/2/5 312/3/5 311/4/5
f 308/1/6 305/2/6 309/3/6 312/4/6
f 313/1/1 316/2/1 315/3/1 314/4/1
f 317/1/2 318/2/2 319/3/2 320/4/2
f 313/1/3 314/2/3 318/3/3 317/4/3
f 314/1/4 315/2/4 319/3/4 318/4/4
f 315/1/5 316/2/5 320/3/5 319/4/5
f 316/1/6 313/2/6 317/3/6 320/4/6
f 321/1/1 324/2/1 323/3/1 322/4/1
f 325/1/2 326/2/2 327/3/2 328/4/2
f 321/1/3 322/2/3 326/3/3 325/4/3
f 322/1/4 323/2/4 327/3/4 326/4/4
f 323/1/5 324/2/5 328/3/5 327/4/5
f 324/1/6 321/2/6 325/3/6 328/4/6
f 329/1/1 332/2/1 331/3/1 330/4/1
f 333/1/2 334/2/2 335/3/2 336/4/2
f 329/1/3 330/2/3 334/3/3 333/4/3
f 330/1/4 331/2/4 335/3/4 334/4/4
f 331/1/5 332/2/5 336/3/5 335/4/5
f 332/1/6 329/2/6 333/3/6 336/4/6
f 337/1/1 340/2/1 339/3/1 338/4/1
f 341/1/2 342/2/2 343/3/2 344/4/2
f 337/1/3 338/2/3 342/3/3 341/4/3
f 338/1/4 339/2/4 343/3/4 342/4/4
f 339/1/5 340/2/5 344/3/5 343/4/5
f 340/1/6 337/2/6 341/3/6 344/4/6
f 353/1/1 356/2/1 355/3/1 354/4/1
f 357/1/2 358/2/2 359/3/2 360/4/2
f 353/1/3 354/2/3 358/3/3 357/4/3
f 354/1/4 355/2/4 359/3/4 358/4/4
f 355/1/5 356/2/5 360/3/5 359/4/5
f 356/1/6 353/2/6 357/3/6 360/4/6
f 369/1/1 372/2/1 371/3/1 370/4/1
f 373/1/2 374/2/2 375/3/2 376/4/2
f 369/1/3 370/2/3 374/3/3 373/4/3
f 370/1/4 371/2/4 375/3/4 374/4/4
f 371/1/5 372/2/5 376/3/5 375/4/5
f 372/1/6 369/2/6 373/3/6 376/4/6
f 385/1/1 388/2/1 387/3/1 386/4/1
f 389/1/2 390/2/2 391/3/2 392/4/2
f 385/1/3 386/2/3 390/3/3 389/4/3
f 386/1/4 387/2/4 391/3/4 390/4/4
f 387/1/5 388/2/5 392/3/5 391/4/5
f 388/1/6 385/2/6 389/3/6 392/4/6
f 401/1/1 404/2/1 403/3/1 402/4/1
f 405/1/2 406/2/2 407/3/2 408/4/2
f 401/1/3 402/2/3 406/3/3 405/4/3
f 402/1/4 403/2/4 407/3/4 406/4/4
f 403/1/5 404/2/5 408/3/5 407/4/5
f 404/1/6 401/2/6 405/3/6 408/4/6
f 417/1/1 420/2/1 419/3/1 418/4/1
f 421/1/2 422/2/2 423/3/2 424/4/2
f 417/1/3 418/2/3 422/3/3 421/4/3
f 418/1/4 419/2/4 423/3/4 422/4/4
f 419/1/5 420/2/5 424/3/5 423/4/5
f 420/1/6 417/2/6 421/3/6 424/4/6
usemtl MI_Patina_Bronze
f 33/1/1 36/2/1 35/3/1 34/4/1
f 37/1/2 38/2/2 39/3/2 40/4/2
f 33/1/3 34/2/3 38/3/3 37/4/3
f 34/1/4 35/2/4 39/3/4 38/4/4
f 35/1/5 36/2/5 40/3/5 39/4/5
f 36/1/6 33/2/6 37/3/6 40/4/6
f 41/1/1 44/2/1 43/3/1 42/4/1
f 45/1/2 46/2/2 47/3/2 48/4/2
f 41/1/3 42/2/3 46/3/3 45/4/3
f 42/1/4 43/2/4 47/3/4 46/4/4
f 43/1/5 44/2/5 48/3/5 47/4/5
f 44/1/6 41/2/6 45/3/6 48/4/6
f 345/1/1 348/2/1 347/3/1 346/4/1
f 349/1/2 350/2/2 351/3/2 352/4/2
f 345/1/3 346/2/3 350/3/3 349/4/3
f 346/1/4 347/2/4 351/3/4 350/4/4
f 347/1/5 348/2/5 352/3/5 351/4/5
f 348/1/6 345/2/6 349/3/6 352/4/6
f 361/1/1 364/2/1 363/3/1 362/4/1
f 365/1/2 366/2/2 367/3/2 368/4/2
f 361/1/3 362/2/3 366/3/3 365/4/3
f 362/1/4 363/2/4 367/3/4 366/4/4
f 363/1/5 364/2/5 368/3/5 367/4/5
f 364/1/6 361/2/6 365/3/6 368/4/6
f 377/1/1 380/2/1 379/3/1 378/4/1
f 381/1/2 382/2/2 383/3/2 384/4/2
f 377/1/3 378/2/3 382/3/3 381/4/3
f 378/1/4 379/2/4 383/3/4 382/4/4
f 379/1/5 380/2/5 384/3/5 383/4/5
f 380/1/6 377/2/6 381/3/6 384/4/6
f 393/1/1 396/2/1 395/3/1 394/4/1
f 397/1/2 398/2/2 399/3/2 400/4/2
f 393/1/3 394/2/3 398/3/3 397/4/3
f 394/1/4 395/2/4 399/3/4 398/4/4
f 395/1/5 396/2/5 400/3/5 399/4/5
f 396/1/6 393/2/6 397/3/6 400/4/6
f 409/1/1 412/2/1 411/3/1 410/4/1
f 413/1/2 414/2/2 415/3/2 416/4/2
f 409/1/3 410/2/3 414/3/3 413/4/3
f 410/1/4 411/2/4 415/3/4 414/4/4
f 411/1/5 412/2/5 416/3/5 415/4/5
f 412/1/6 409/2/6 413/3/6 416/4/6
f 425/1/1 428/2/1 427/3/1 426/4/1
f 429/1/2 430/2/2 431/3/2 432/4/2
f 425/1/3 426/2/3 430/3/3 429/4/3
f 426/1/4 427/2/4 431/3/4 430/4/4
f 427/1/5 428/2/5 432/3/5 431/4/5
f 428/1/6 425/2/6 429/3/6 432/4/6
