mtllib SM_Ziggurat_Tier.mtl
o SM_Ziggurat_Tier
v -1500.0000 -1500.0000 0.0000
v 1500.0000 -1500.0000 0.0000
v 1500.0000 1500.0000 0.0000
v -1500.0000 1500.0000 0.0000
v -1500.0000 -1500.0000 420.0000
v 1500.0000 -1500.0000 420.0000
v 1500.0000 1500.0000 420.0000
v -1500.0000 1500.0000 420.0000
v -1550.0000 -1550.0000 420.0000
v 1550.0000 -1550.0000 420.0000
v 1550.0000 1550.0000 420.0000
v -1550.0000 1550.0000 420.0000
v -1550.0000 -1550.0000 450.0000
v 1550.0000 -1550.0000 450.0000
v 1550.0000 1550.0000 450.0000
v -1550.0000 1550.0000 450.0000
v -1650.0000 -1650.0000 0.0000
v -1150.0000 -1650.0000 0.0000
v -1150.0000 -1150.0000 0.0000
v -1650.0000 -1150.0000 0.0000
v -1650.0000 -1650.0000 470.0000
v -1150.0000 -1650.0000 470.0000
v -1150.0000 -1150.0000 470.0000
v -1650.0000 -1150.0000 470.0000
v 1150.0000 -1650.0000 0.0000
v 1650.0000 -1650.0000 0.0000
v 1650.0000 -1150.0000 0.0000
v 1150.0000 -1150.0000 0.0000
v 1150.0000 -1650.0000 470.0000
v 1650.0000 -1650.0000 470.0000
v 1650.0000 -1150.0000 470.0000
v 1150.0000 -1150.0000 470.0000
v -1650.0000 1150.0000 0.0000
v -1150.0000 1150.0000 0.0000
v -1150.0000 1650.0000 0.0000
v -1650.0000 1650.0000 0.0000
v -1650.0000 1150.0000 470.0000
v -1150.0000 1150.0000 470.0000
v -1150.0000 1650.0000 470.0000
v -1650.0000 1650.0000 470.0000
v 1150.0000 1150.0000 0.0000
v 1650.0000 1150.0000 0.0000
v 1650.0000 1650.0000 0.0000
v 1150.0000 1650.0000 0.0000
v 1150.0000 1150.0000 470.0000
v 1650.0000 1150.0000 470.0000
v 1650.0000 1650.0000 470.0000
v 1150.0000 1650.0000 470.0000
vt 0.0 0.0
vt 1.0 0.0
vt 1.0 1.0
vt 0.0 1.0
vn 0.0 0.0 -1.0
vn 0.0 0.0 1.0
vn 0.0 -1.0 0.0
vn 1.0 0.0 0.0
vn 0.0 1.0 0.0
vn -1.0 0.0 0.0
usemtl M_SM_Ziggurat_Tier
f 1/1/1 4/2/1 3/3/1 2/4/1
f 5/1/2 6/2/2 7/3/2 8/4/2
f 1/1/3 2/2/3 6/3/3 5/4/3
f 2/1/4 3/2/4 7/3/4 6/4/4
f 3/1/5 4/2/5 8/3/5 7/4/5
f 4/1/6 1/2/6 5/3/6 8/4/6
f 9/1/1 12/2/1 11/3/1 10/4/1
f 13/1/2 14/2/2 15/3/2 16/4/2
f 9/1/3 10/2/3 14/3/3 13/4/3
f 10/1/4 11/2/4 15/3/4 14/4/4
f 11/1/5 12/2/5 16/3/5 15/4/5
f 12/1/6 9/2/6 13/3/6 16/4/6
f 17/1/1 20/2/1 19/3/1 18/4/1
f 21/1/2 22/2/2 23/3/2 24/4/2
f 17/1/3 18/2/3 22/3/3 21/4/3
f 18/1/4 19/2/4 23/3/4 22/4/4
f 19/1/5 20/2/5 24/3/5 23/4/5
f 20/1/6 17/2/6 21/3/6 24/4/6
f 25/1/1 28/2/1 27/3/1 26/4/1
f 29/1/2 30/2/2 31/3/2 32/4/2
f 25/1/3 26/2/3 30/3/3 29/4/3
f 26/1/4 27/2/4 31/3/4 30/4/4
f 27/1/5 28/2/5 32/3/5 31/4/5
f 28/1/6 25/2/6 29/3/6 32/4/6
f 33/1/1 36/2/1 35/3/1 34/4/1
f 37/1/2 38/2/2 39/3/2 40/4/2
f 33/1/3 34/2/3 38/3/3 37/4/3
f 34/1/4 35/2/4 39/3/4 38/4/4
f 35/1/5 36/2/5 40/3/5 39/4/5
f 36/1/6 33/2/6 37/3/6 40/4/6
f 41/1/1 44/2/1 43/3/1 42/4/1
f 45/1/2 46/2/2 47/3/2 48/4/2
f 41/1/3 42/2/3 46/3/3 45/4/3
f 42/1/4 43/2/4 47/3/4 46/4/4
f 43/1/5 44/2/5 48/3/5 47/4/5
f 44/1/6 41/2/6 45/3/6 48/4/6
